<?xml version="1.0" encoding="utf-8"?>
<!-- Generator: Adobe Illustrator 21.1.0, SVG Export Plug-In . SVG Version: 6.00 Build 0)  -->
<svg version="1.1" id="Layer_1" xmlns="http://www.w3.org/2000/svg" xmlns:xlink="http://www.w3.org/1999/xlink" x="0px" y="0px" width="206px" height="46px"
	 viewBox="0 0 200 46" style="enable-background:new 0 0 200 46;" xml:space="preserve">
<style type="text/css">
	.st0{fill:#1D1D1B;}
	.st1{fill:#009EE2;}
</style>
<g>
	<g>
		<g>
			<g>
				<g>
					<polygon class="st0" points="0,30.8 0,9.7 5.3,9.7 5.3,26.4 13.5,26.4 13.5,30.8 					"/>
					<g>
						<path class="st0" d="M35,30.8V9.7h10.5c5.1,0,7.6,2.3,7.6,6.9c0,1.4-0.4,2.6-1.2,3.6c-0.8,1-1.8,1.7-3.2,2.1l4.8,8.5h-5.9
							l-4.1-7.6h-3.3v7.6L35,30.8 M40.3,13.7v5.7h4.8c1.9,0,2.8-0.9,2.8-2.8c0-1.9-0.9-2.8-2.8-2.8H40.3L40.3,13.7z"/>
						<path class="st0" d="M69.6,19.2v8.3c0,1.5,0.1,2.6,0.4,3.3h-4.3c-0.2-0.5-0.3-1-0.3-1.6h-0.1c-0.4,0.6-1.1,1.1-2,1.5
							c-0.9,0.4-1.8,0.6-2.7,0.6c-1.6,0-2.8-0.4-3.8-1.2c-1-0.9-1.5-2-1.5-3.5c0-1.8,0.7-3.2,2.2-4.1c1.2-0.8,3.2-1.4,5.9-1.7
							l1.7-0.2v-1.3c0-1.1-0.7-1.7-2.2-1.7c-0.8,0-1.3,0.2-1.7,0.5c-0.4,0.3-0.6,0.9-0.7,1.6h-4.4c0.1-3.3,2.3-4.9,6.5-4.9
							c2.3,0,4,0.3,5.1,0.9C68.9,16.3,69.6,17.5,69.6,19.2 M65.1,24.3v-1.1L62,24.1c-1.5,0.4-2.2,1.1-2.2,2c0,1.2,0.7,1.8,2.2,1.8
							c0.9,0,1.7-0.3,2.3-0.9C64.8,26.3,65.1,25.4,65.1,24.3"/>
						<path class="st0" d="M23.6,14.7c2.5,0,4.5,0.7,6.1,2.2c1.5,1.5,2.3,3.5,2.3,6.1s-0.8,4.6-2.3,6.1c-1.5,1.5-3.6,2.2-6.1,2.2
							c-2.5,0-4.5-0.7-6.1-2.2c-1.5-1.5-2.3-3.5-2.3-6.1s0.8-4.6,2.3-6.1C19,15.4,21,14.7,23.6,14.7 M23.6,18.2
							c-1.3,0-2.2,0.5-2.9,1.4c-0.6,0.8-0.9,2-0.9,3.4c0,1.4,0.3,2.6,0.9,3.4c0.7,0.9,1.6,1.4,2.9,1.4c2.5,0,3.8-1.6,3.8-4.9
							c0-1.4-0.3-2.4-0.9-3.2C25.8,18.6,24.8,18.2,23.6,18.2"/>
						<path class="st1" d="M23.4,11.5c2.3,0,4.4,0.7,6.3,1.8l0.9-1.3c-2.1-1.3-4.5-2.1-7.2-2.1c-2.5,0-4.9,0.7-6.9,2l0.9,1.3
							C19.2,12.1,21.2,11.5,23.4,11.5"/>
						<path class="st1" d="M13.7,7.9l1.2,1.7c2.5-1.6,5.4-2.5,8.5-2.5c3.2,0,6.3,1,8.8,2.6l1.2-1.7c-2.9-1.9-6.3-3-10-3
							C19.8,5,16.5,6.1,13.7,7.9"/>
						<path class="st1" d="M23.4,2.6c4.2,0,8.1,1.3,11.4,3.5l1.5-2.1C32.6,1.5,28.2,0,23.4,0c-4.6,0-9,1.4-12.6,3.7l1.5,2.2
							C15.5,3.8,19.3,2.6,23.4,2.6"/>
						<path class="st1" d="M23.7,34.5c-2.3,0-4.4-0.7-6.3-1.8l-0.9,1.3c2.1,1.3,4.5,2.1,7.2,2.1c2.5,0,4.9-0.7,6.9-2l-0.9-1.3
							C27.9,33.8,25.9,34.5,23.7,34.5"/>
						<path class="st1" d="M33.4,38.1l-1.2-1.7c-2.5,1.6-5.4,2.5-8.5,2.5c-3.2,0-6.3-1-8.8-2.6l-1.2,1.7c2.9,1.9,6.3,3,10,3
							C27.3,40.9,30.6,39.9,33.4,38.1"/>
						<path class="st1" d="M23.7,43.3c-4.2,0-8.1-1.3-11.4-3.5L10.8,42c3.7,2.5,8.1,3.9,12.9,3.9c4.6,0,9-1.4,12.6-3.7l-1.5-2.2
							C31.6,42.1,27.8,43.3,23.7,43.3"/>
					</g>
				</g>
			</g>
			<g>
				<path class="st0" d="M100.5,30.9H96l-1.8-5H86l-1.7,5h-4.4l8-21.8h4.4L100.5,30.9z M92.8,22.3L90,14.2l-2.8,8.1H92.8z"/>
				<path class="st0" d="M101.6,30.9V9.1h4.3v21.8H101.6z"/>
				<path class="st0" d="M110.2,30.9V9.1h4.3v21.8H110.2z"/>
				<path class="st0" d="M118.8,13V9.1h4.3V13H118.8z M118.8,30.9V15.1h4.3v15.8H118.8z"/>
				<path class="st0" d="M130.6,20l-3.9-0.7c0.4-1.5,1.2-2.7,2.3-3.4c1.1-0.7,2.7-1.1,4.8-1.1c1.9,0,3.4,0.2,4.3,0.7
					c0.9,0.4,1.6,1,2,1.7c0.4,0.7,0.6,1.9,0.6,3.7l0,4.9c0,1.4,0.1,2.4,0.2,3.1c0.1,0.7,0.4,1.4,0.8,2.1h-4.3
					c-0.1-0.3-0.3-0.7-0.4-1.2c-0.1-0.2-0.1-0.4-0.2-0.5c-0.7,0.7-1.5,1.2-2.4,1.6c-0.8,0.3-1.7,0.5-2.7,0.5c-1.7,0-3-0.4-4-1.3
					c-1-0.9-1.5-2-1.5-3.3c0-0.9,0.2-1.7,0.7-2.4c0.4-0.7,1.1-1.2,1.9-1.6c0.8-0.4,2-0.7,3.5-1c2-0.4,3.4-0.7,4.2-1v-0.4
					c0-0.8-0.2-1.4-0.6-1.7c-0.4-0.3-1.2-0.5-2.3-0.5c-0.8,0-1.4,0.1-1.8,0.4C131.3,18.7,130.9,19.2,130.6,20z M136.5,23.3
					c-0.6,0.2-1.4,0.4-2.6,0.6c-1.2,0.2-2,0.5-2.4,0.7c-0.6,0.4-0.9,0.9-0.9,1.5c0,0.6,0.2,1.1,0.7,1.5c0.5,0.4,1,0.6,1.7,0.6
					c0.8,0,1.5-0.2,2.2-0.7c0.5-0.4,0.9-0.8,1-1.4c0.1-0.4,0.2-1,0.2-2L136.5,23.3L136.5,23.3z"/>
				<path class="st0" d="M159,30.9h-4.3v-8.1c0-1.7-0.1-2.8-0.3-3.3c-0.2-0.5-0.5-0.9-0.9-1.2c-0.4-0.3-0.9-0.4-1.5-0.4
					c-0.8,0-1.4,0.2-2,0.6c-0.6,0.4-1,0.9-1.2,1.6c-0.2,0.7-0.3,1.9-0.3,3.6v7.2H144V15.1h4v2.3c1.4-1.8,3.2-2.7,5.4-2.7
					c1,0,1.8,0.2,2.6,0.5c0.8,0.3,1.4,0.8,1.8,1.3c0.4,0.5,0.7,1.1,0.9,1.8c0.2,0.7,0.2,1.6,0.2,2.8V30.9L159,30.9z"/>
				<path class="st0" d="M176.1,19.8l-4.3,0.7c-0.1-0.8-0.5-1.4-1-1.9c-0.5-0.4-1.2-0.6-2-0.6c-1.1,0-1.9,0.4-2.6,1.1
					c-0.6,0.7-1,1.9-1,3.6c0,1.9,0.3,3.2,1,4c0.7,0.8,1.5,1.2,2.6,1.2c0.8,0,1.5-0.2,2-0.7c0.5-0.5,0.9-1.2,1.1-2.3l4.3,0.7
					c-0.4,1.9-1.3,3.3-2.6,4.3s-2.9,1.4-5.1,1.4c-2.4,0-4.3-0.7-5.7-2.2c-1.4-1.5-2.1-3.5-2.1-6.1c0-2.6,0.7-4.6,2.1-6.1
					c1.4-1.5,3.4-2.2,5.8-2.2c2,0,3.6,0.4,4.8,1.2C174.7,16.8,175.6,18.1,176.1,19.8z"/>
				<path class="st0" d="M187.3,25.9l4.3,0.7c-0.6,1.5-1.4,2.7-2.6,3.5c-1.2,0.8-2.7,1.2-4.5,1.2c-2.9,0-5-0.9-6.3-2.7
					c-1.1-1.4-1.6-3.3-1.6-5.4c0-2.6,0.7-4.7,2.1-6.2c1.4-1.5,3.2-2.2,5.4-2.2c2.4,0,4.4,0.8,5.8,2.3c1.4,1.6,2.1,3.9,2,7.1h-10.9
					c0,1.2,0.4,2.2,1.1,2.9c0.7,0.7,1.5,1,2.5,1c0.7,0,1.3-0.2,1.7-0.5C186.7,27.3,187,26.7,187.3,25.9z M187.5,21.7
					c0-1.2-0.4-2.1-1-2.8c-0.6-0.6-1.4-0.9-2.3-0.9c-0.9,0-1.7,0.3-2.4,1c-0.6,0.7-0.9,1.6-0.9,2.7H187.5z"/>
			</g>
		</g>
	</g>
	<g>
		<path class="st0" d="M193,11.6h-1.2v-0.7h3.1v0.7h-1.2v3.2H193V11.6z M195.8,10.9h1.1l1,2.6l1-2.6h1.1v3.9h-0.7v-3h0l-1.1,3h-0.6
			l-1.1-3h0v3h-0.7V10.9z"/>
	</g>
</g>
</svg>
